<?xml version="1.0" encoding="utf-8"?>
<!-- Uploaded to: SVG Repo, www.svgrepo.com, Generator: SVG Repo Mixer Tools -->
<svg width="800px" height="800px" viewBox="0 0 1024 1024" class="icon"  version="1.1" xmlns="http://www.w3.org/2000/svg"><path d="M736 170.666667a117.333333 117.333333 0 1 1 0 234.666666 117.333333 117.333333 0 1 1 0-234.666666" fill="#FFB74D" /><path d="M597.333333 106.666667s-21.333333 0-21.333333 21.333333 42.666667 85.333333 42.666667 85.333333h234.666666V170.688c0-21.333333-21.333333-21.333333-21.333333-21.333333S704 127.978667 597.333333 106.666667zM810.666667 448.021333L682.752 448 682.666667 447.978667l-7.210667 0.021333H661.333333c-9.344 0-18.218667 1.578667-26.88 3.84-29.504 6.229333-63.210667 22.784-97.749333 66.709333l-123.498667 123.498667-111.829333-95.872a53.333333 53.333333 0 1 0-69.418667 80.981333l149.333334 128a53.248 53.248 0 0 0 72.426666-2.773333L554.666667 668.352V938.666667h362.666666V554.688a106.666667 106.666667 0 0 0-106.666666-106.666667z" fill="#3F51B5" /><path d="M597.333333 128m-21.333333 0a21.333333 21.333333 0 1 0 42.666667 0 21.333333 21.333333 0 1 0-42.666667 0Z" fill="#3F51B5" /><path d="M618.666667 213.333333l-64 64h298.666666v-64z" fill="#263238" /><path d="M554.666667 789.354667h256V853.333333H554.666667z" fill="#E8EAF6" /><path d="M810.666667 448.704A886.72 886.72 0 0 0 789.333333 448h-39.914666L554.666667 788.8V810.666667h56.917333L810.666667 448.704z" fill="#E8EAF6" /><path d="M554.666667 618.666667l-90.154667 122.88 10.24-6.698667L554.666667 668.352z" fill="#1A237E" /><path d="M810.666667 576s-21.333333 288-21.333334 362.666667h42.666667l-21.333333-362.666667z" fill="#311B92" /><path d="M106.666667 298.666667l213.333333-85.333334 64 277.333334-213.333333 85.333333z" fill="#FFCC80" /><path d="M106.666667 298.666667l64 277.333333h192l-64-277.333333z" fill="#DD2C00" /></svg>